<svg width="17" height="14" viewBox="0 0 17 14" fill="none" xmlns="http://www.w3.org/2000/svg">
<path d="M16.937 2.2903C16.3486 2.55103 15.7165 2.72719 15.052 2.80682C15.7377 2.39656 16.2506 1.75086 16.4952 0.990205C15.851 1.37283 15.146 1.64215 14.4108 1.78647C13.9164 1.25858 13.2616 0.908694 12.5479 0.79112C11.8343 0.673546 11.1018 0.794867 10.4642 1.13625C9.82656 1.47763 9.31948 2.01997 9.02168 2.67906C8.72388 3.33816 8.652 4.07714 8.81722 4.78127C7.51197 4.71574 6.23508 4.37648 5.06943 3.78552C3.90378 3.19456 2.87542 2.36511 2.05108 1.35099C1.76921 1.83721 1.60714 2.40093 1.60714 3.0013C1.60683 3.54177 1.73992 4.07397 1.99462 4.55066C2.24932 5.02736 2.61774 5.43381 3.0672 5.73397C2.54594 5.71739 2.03619 5.57654 1.58037 5.32316V5.36544C1.58031 6.12347 1.84252 6.85817 2.3225 7.44488C2.80248 8.0316 3.47067 8.43418 4.21368 8.58432C3.73013 8.71519 3.22317 8.73446 2.73108 8.64069C2.94071 9.29294 3.34906 9.8633 3.89895 10.2719C4.44885 10.6806 5.11277 10.907 5.79775 10.9196C4.63495 11.8324 3.19889 12.3275 1.72059 12.3254C1.45873 12.3254 1.19708 12.3101 0.937012 12.2796C2.43757 13.2444 4.18432 13.7564 5.96828 13.7544C12.0072 13.7544 15.3085 8.75273 15.3085 4.41485C15.3085 4.27392 15.305 4.13158 15.2987 3.99064C15.9408 3.52626 16.4951 2.9512 16.9356 2.29242L16.937 2.2903V2.2903Z" fill="#6F6F6F"/>
</svg>
